<svg width="21" height="21" viewBox="0 0 21 21" fill="none" xmlns="http://www.w3.org/2000/svg">
<path d="M18.9353 13.4334L18.9036 12.7442L13.5011 11.9726L12.4053 14.1176C11.2483 13.4661 10.1906 12.6523 9.26446 11.7009C8.30245 10.7762 7.48272 9.71412 6.83196 8.54922L9.16529 7.38255L6.83196 1.94922L6.19863 2.04089C5.12601 2.18864 4.13228 2.68668 3.37196 3.45755C0.727795 6.09839 1.76363 11.2759 5.72863 15.2401C8.21363 17.7242 11.1728 19.0584 13.6878 19.0576C14.3908 19.0821 15.0915 18.9654 15.7486 18.7145C16.4057 18.4636 17.0059 18.0835 17.5136 17.5967C18.0323 17.0433 18.4272 16.3858 18.6724 15.668C18.9175 14.9502 19.0071 14.1885 18.9353 13.4334ZM16.3353 16.4184C14.4186 18.3351 10.1011 17.2517 6.90696 14.0617C3.71279 10.8717 2.63363 6.55005 4.55029 4.63339C4.90758 4.27131 5.34486 3.99815 5.82696 3.83589L7.01029 6.59672L6.08779 7.05755C5.88796 7.15763 5.71018 7.2967 5.56492 7.46654C5.41966 7.63639 5.30986 7.83359 5.24199 8.04653C5.17412 8.25947 5.14955 8.48384 5.16972 8.70642C5.18989 8.929 5.25441 9.14529 5.35946 9.34255C6.08892 10.6494 7.00619 11.8421 8.08196 12.8826C9.12273 13.9463 10.3107 14.8552 11.6095 15.5817C11.8097 15.6904 12.0296 15.7579 12.2563 15.7804C12.4829 15.8029 12.7118 15.7798 12.9295 15.7126C13.1423 15.6463 13.3395 15.5376 13.5091 15.3929C13.6787 15.2482 13.8172 15.0706 13.9161 14.8709L14.4553 13.7926L17.2611 14.1934C17.2291 15.022 16.9006 15.8116 16.3353 16.4184Z" fill="#ECE5E5"/>
</svg>
